<svg xmlns="http://www.w3.org/2000/svg" version="1.1" xmlns:xlink="http://www.w3.org/1999/xlink" viewBox="0 0 200 200" width="200" height="200"><metadata><rdf:RDF xmlns:rdf="http://www.w3.org/1999/02/22-rdf-syntax-ns#" xmlns:dc="http://purl.org/dc/elements/1.1/"><rdf:Description><dc:creator>RealFaviconGenerator</dc:creator><dc:source>https://realfavicongenerator.net</dc:source></rdf:Description></rdf:RDF></metadata><rect width="200" height="200" fill="url('#gradient')"></rect><defs><linearGradient id="gradient" gradientTransform="rotate(45 0.5 0.5)"><stop offset="0%" stop-color="#ceaa96"></stop><stop offset="100%" stop-color="#8fa983"></stop></linearGradient></defs><g><g fill="#445272" transform="matrix(6.513365539452496,0,0,6.513365539452496,14.020448959084902,146.30940472162098)" stroke="#c8512e" stroke-width="0.2"><path d="M8.94 0L5.91-5.29L4.50-3.75L4.50 0L1.07 0L1.07-14.22L4.50-14.22L4.50-7.95L5.69-9.76L8.76-14.22L13.00-14.22L8.19-7.93L13.00 0L8.94 0ZM21.66 0L19.15-5.02L17.29-5.02L17.29 0L13.87 0L13.87-14.22L19.46-14.22Q21.99-14.22 23.42-13.10Q24.84-11.97 24.84-9.92L24.84-9.92Q24.84-8.44 24.24-7.46Q23.64-6.48 22.36-5.88L22.36-5.88L25.33-0.15L25.33 0L21.66 0ZM17.29-11.57L17.29-7.67L19.46-7.67Q20.44-7.67 20.93-8.18Q21.43-8.69 21.43-9.61Q21.43-10.53 20.93-11.05Q20.43-11.57 19.46-11.57L19.46-11.57L17.29-11.57Z"></path></g></g></svg>